{
  "accessors": [
    {
      "bufferView": 2,
      "componentType": 5126,
      "count": 527,
      "max": [
        0.9748702645301819,
        0.9968880414962769,
        0.5551196336746216
      ],
      "min": [
        -0.9749855399131775,
        -0.9968880414962769,
        -0.5790244936943054
      ],
      "type": "VEC3"
    },
    {
      "bufferView": 2,
      "byteOffset": 6324,
      "componentType": 5126,
      "count": 527,
      "max": [
        1.0,
        1.0,
        1.0
      ],
      "min": [
        -1.0,
        -1.0,
        -1.0
      ],
      "type": "VEC3"
    },
    {
      "bufferView": 1,
      "componentType": 5126,
      "count": 527,
      "max": [
        0.7791435718536377,
        0.23097342252731323
      ],
      "min": [
        0.7758951187133789,
        0.22082409262657166
      ],
      "type": "VEC2"
    },
    {
      "bufferView": 0,
      "componentType": 5125,
      "count": 816,
      "type": "SCALAR"
    },
    {
      "bufferView": 2,
      "byteOffset": 12648,
      "componentType": 5126,
      "count": 98,
      "max": [
        0.22371253371238708,
        0.05386419594287872,
        0.4431638717651367
      ],
      "min": [
        -0.22291356325149536,
        -0.05386430770158768,
        0.29433560371398926
      ],
      "type": "VEC3"
    },
    {
      "bufferView": 2,
      "byteOffset": 13824,
      "componentType": 5126,
      "count": 98,
      "max": [
        1.0,
        1.0,
        1.0
      ],
      "min": [
        -1.0,
        -1.0,
        -1.0
      ],
      "type": "VEC3"
    },
    {
      "bufferView": 1,
      "byteOffset": 4216,
      "componentType": 5126,
      "count": 98,
      "max": [
        0.7758951187133789,
        0.23097342252731323
      ],
      "min": [
        0.7758951187133789,
        0.23097342252731323
      ],
      "type": "VEC2"
    },
    {
      "bufferView": 0,
      "byteOffset": 3264,
      "componentType": 5125,
      "count": 168,
      "type": "SCALAR"
    },
    {
      "bufferView": 2,
      "byteOffset": 15000,
      "componentType": 5126,
      "count": 728,
      "max": [
        0.4956359565258026,
        0.5183408856391907,
        0.49017292261123657
      ],
      "min": [
        -0.4717749059200287,
        -0.4881170988082886,
        -0.4875163733959198
      ],
      "type": "VEC3"
    },
    {
      "bufferView": 2,
      "byteOffset": 23736,
      "componentType": 5126,
      "count": 728,
      "max": [
        1.0,
        1.0,
        1.0
      ],
      "min": [
        -1.0,
        -1.0,
        -1.0
      ],
      "type": "VEC3"
    },
    {
      "bufferView": 1,
      "byteOffset": 5000,
      "componentType": 5126,
      "count": 728,
      "max": [
        0.7791435718536377,
        0.23097342252731323
      ],
      "min": [
        0.7758951187133789,
        0.22511593997478485
      ],
      "type": "VEC2"
    },
    {
      "bufferView": 0,
      "byteOffset": 3936,
      "componentType": 5125,
      "count": 1116,
      "type": "SCALAR"
    },
    {
      "bufferView": 2,
      "byteOffset": 32472,
      "componentType": 5126,
      "count": 923,
      "max": [
        0.9619584679603577,
        0.984331488609314,
        0.2768833041191101
      ],
      "min": [
        -0.9850896596908569,
        -1.0129947662353516,
        -0.871503472328186
      ],
      "type": "VEC3"
    },
    {
      "bufferView": 2,
      "byteOffset": 43548,
      "componentType": 5126,
      "count": 923,
      "max": [
        0.9999768733978271,
        0.9999674558639526,
        0.9999929070472717
      ],
      "min": [
        -0.9999980926513672,
        -0.9999819993972778,
        -0.9999999403953552
      ],
      "type": "VEC3"
    },
    {
      "bufferView": 1,
      "byteOffset": 10824,
      "componentType": 5126,
      "count": 923,
      "max": [
        0.7758951187133789,
        0.23097342252731323
      ],
      "min": [
        0.7758951187133789,
        0.23097342252731323
      ],
      "type": "VEC2"
    },
    {
      "bufferView": 0,
      "byteOffset": 8400,
      "componentType": 5125,
      "count": 1620,
      "type": "SCALAR"
    },
    {
      "bufferView": 2,
      "byteOffset": 54624,
      "componentType": 5126,
      "count": 112,
      "max": [
        0.2133052498102188,
        0.04320068284869194,
        0.15165811777114868
      ],
      "min": [
        -0.23332086205482483,
        -0.07055643200874329,
        -3.933906555175781e-06
      ],
      "type": "VEC3"
    },
    {
      "bufferView": 2,
      "byteOffset": 55968,
      "componentType": 5126,
      "count": 112,
      "max": [
        1.0,
        1.0,
        1.0
      ],
      "min": [
        -1.0,
        -0.9965816736221313,
        -0.9998447895050049
      ],
      "type": "VEC3"
    },
    {
      "bufferView": 1,
      "byteOffset": 18208,
      "componentType": 5126,
      "count": 112,
      "max": [
        0.7758951187133789,
        0.23097342252731323
      ],
      "min": [
        0.7758951187133789,
        0.23097342252731323
      ],
      "type": "VEC2"
    },
    {
      "bufferView": 0,
      "byteOffset": 14880,
      "componentType": 5125,
      "count": 168,
      "type": "SCALAR"
    },
    {
      "bufferView": 2,
      "byteOffset": 57312,
      "componentType": 5126,
      "count": 1010,
      "max": [
        0.5129749178886414,
        0.5223959684371948,
        0.5316797494888306
      ],
      "min": [
        -0.4680526852607727,
        -0.4863477647304535,
        -0.47165438532829285
      ],
      "type": "VEC3"
    },
    {
      "bufferView": 2,
      "byteOffset": 69432,
      "componentType": 5126,
      "count": 1010,
      "max": [
        1.0,
        1.0,
        1.0
      ],
      "min": [
        -1.0,
        -1.0,
        -1.0
      ],
      "type": "VEC3"
    },
    {
      "bufferView": 1,
      "byteOffset": 19104,
      "componentType": 5126,
      "count": 1010,
      "max": [
        0.7791435718536377,
        0.23097342252731323
      ],
      "min": [
        0.7758951187133789,
        0.22511593997478485
      ],
      "type": "VEC2"
    },
    {
      "bufferView": 0,
      "byteOffset": 15552,
      "componentType": 5125,
      "count": 1713,
      "type": "SCALAR"
    },
    {
      "bufferView": 2,
      "byteOffset": 81552,
      "componentType": 5126,
      "count": 324,
      "max": [
        0.09565653651952744,
        0.1159864142537117,
        0.0863090455532074
      ],
      "min": [
        -0.09571726620197296,
        -0.1377917230129242,
        -0.10045947879552841
      ],
      "type": "VEC3"
    },
    {
      "bufferView": 2,
      "byteOffset": 85440,
      "componentType": 5126,
      "count": 324,
      "max": [
        1.0,
        1.0,
        1.0
      ],
      "min": [
        -1.0,
        -1.0,
        -1.0
      ],
      "type": "VEC3"
    },
    {
      "bufferView": 1,
      "byteOffset": 27184,
      "componentType": 5126,
      "count": 324,
      "max": [
        0.7772378921508789,
        0.23414725065231323
      ],
      "min": [
        0.7772378921508789,
        0.23414725065231323
      ],
      "type": "VEC2"
    },
    {
      "bufferView": 0,
      "byteOffset": 22404,
      "componentType": 5125,
      "count": 510,
      "type": "SCALAR"
    },
    {
      "bufferView": 2,
      "byteOffset": 89328,
      "componentType": 5126,
      "count": 234,
      "max": [
        0.09868665784597397,
        0.11955633014440536,
        0.08656570315361023
      ],
      "min": [
        -0.0986223891377449,
        -0.07280577719211578,
        -0.10126294940710068
      ],
      "type": "VEC3"
    },
    {
      "bufferView": 2,
      "byteOffset": 92136,
      "componentType": 5126,
      "count": 234,
      "max": [
        0.9749279022216797,
        0.9009688496589661,
        1.0
      ],
      "min": [
        -0.9749278426170349,
        -1.0,
        -1.0
      ],
      "type": "VEC3"
    },
    {
      "bufferView": 1,
      "byteOffset": 29776,
      "componentType": 5126,
      "count": 234,
      "max": [
        0.7088785171508789,
        0.47731128334999084
      ],
      "min": [
        0.7088785171508789,
        0.47731128334999084
      ],
      "type": "VEC2"
    },
    {
      "bufferView": 0,
      "byteOffset": 24444,
      "componentType": 5125,
      "count": 378,
      "type": "SCALAR"
    },
    {
      "bufferView": 2,
      "byteOffset": 94944,
      "componentType": 5126,
      "count": 299,
      "max": [
        0.09410014748573303,
        0.11477132886648178,
        0.08914078027009964
      ],
      "min": [
        -0.09795250743627548,
        -0.13923653960227966,
        -0.1011238545179367
      ],
      "type": "VEC3"
    },
    {
      "bufferView": 2,
      "byteOffset": 98532,
      "componentType": 5126,
      "count": 299,
      "max": [
        0.9999963045120239,
        0.9999991655349731,
        1.0
      ],
      "min": [
        -0.999996542930603,
        -0.9999982714653015,
        -0.9999973773956299
      ],
      "type": "VEC3"
    },
    {
      "bufferView": 1,
      "byteOffset": 31648,
      "componentType": 5126,
      "count": 299,
      "max": [
        0.7772378921508789,
        0.23414725065231323
      ],
      "min": [
        0.7772378921508789,
        0.23414725065231323
      ],
      "type": "VEC2"
    },
    {
      "bufferView": 0,
      "byteOffset": 25956,
      "componentType": 5125,
      "count": 540,
      "type": "SCALAR"
    },
    {
      "bufferView": 2,
      "byteOffset": 102120,
      "componentType": 5126,
      "count": 220,
      "max": [
        0.09649429470300674,
        0.11812357604503632,
        0.08944379538297653
      ],
      "min": [
        -0.100862056016922,
        -0.07395073771476746,
        -0.10192631185054779
      ],
      "type": "VEC3"
    },
    {
      "bufferView": 2,
      "byteOffset": 104760,
      "componentType": 5126,
      "count": 220,
      "max": [
        0.9755178093910217,
        0.9106785655021667,
        0.9999886751174927
      ],
      "min": [
        -0.9742844700813293,
        -0.9999995827674866,
        -0.9999993443489075
      ],
      "type": "VEC3"
    },
    {
      "bufferView": 1,
      "byteOffset": 34040,
      "componentType": 5126,
      "count": 220,
      "max": [
        0.7088785171508789,
        0.47731128334999084
      ],
      "min": [
        0.7088785171508789,
        0.47731128334999084
      ],
      "type": "VEC2"
    },
    {
      "bufferView": 0,
      "byteOffset": 28116,
      "componentType": 5125,
      "count": 336,
      "type": "SCALAR"
    },
    {
      "bufferView": 2,
      "byteOffset": 107400,
      "componentType": 5126,
      "count": 48,
      "max": [
        1.0,
        0.3417542278766632,
        0.2412119209766388
      ],
      "min": [
        -1.0,
        -0.3417542278766632,
        -0.37994369864463806
      ],
      "type": "VEC3"
    },
    {
      "bufferView": 2,
      "byteOffset": 107976,
      "componentType": 5126,
      "count": 48,
      "max": [
        1.0,
        1.3763002471023356e-06,
        0.9238795638084412
      ],
      "min": [
        -1.0,
        -1.3763002471023356e-06,
        0.0
      ],
      "type": "VEC3"
    },
    {
      "bufferView": 1,
      "byteOffset": 35800,
      "componentType": 5126,
      "count": 48,
      "max": [
        0.8495294451713562,
        0.36196500062942505
      ],
      "min": [
        0.6759074926376343,
        0.3565393090248108
      ],
      "type": "VEC2"
    },
    {
      "bufferView": 0,
      "byteOffset": 29460,
      "componentType": 5125,
      "count": 138,
      "type": "SCALAR"
    },
    {
      "bufferView": 2,
      "byteOffset": 108552,
      "componentType": 5126,
      "count": 458,
      "max": [
        0.38724231719970703,
        0.3872436285018921,
        0.27543771266937256
      ],
      "min": [
        -0.3872447907924652,
        -0.38724347949028015,
        -0.3245866298675537
      ],
      "type": "VEC3"
    },
    {
      "bufferView": 2,
      "byteOffset": 114048,
      "componentType": 5126,
      "count": 458,
      "max": [
        1.0,
        1.0,
        1.0
      ],
      "min": [
        -1.0,
        -1.0,
        -1.0
      ],
      "type": "VEC3"
    },
    {
      "bufferView": 1,
      "byteOffset": 36184,
      "componentType": 5126,
      "count": 458,
      "max": [
        0.7791910171508789,
        0.22828787565231323
      ],
      "min": [
        0.7791910171508789,
        0.22828787565231323
      ],
      "type": "VEC2"
    },
    {
      "bufferView": 0,
      "byteOffset": 30012,
      "componentType": 5125,
      "count": 702,
      "type": "SCALAR"
    },
    {
      "bufferView": 2,
      "byteOffset": 119544,
      "componentType": 5126,
      "count": 120,
      "max": [
        0.4049929082393646,
        0.4049942195415497,
        0.22965890169143677
      ],
      "min": [
        -0.4049953520298004,
        -0.40499407052993774,
        0.16391539573669434
      ],
      "type": "VEC3"
    },
    {
      "bufferView": 2,
      "byteOffset": 120984,
      "componentType": 5126,
      "count": 120,
      "max": [
        1.0,
        1.0,
        1.0
      ],
      "min": [
        -1.0,
        -1.0,
        -1.0
      ],
      "type": "VEC3"
    },
    {
      "bufferView": 1,
      "byteOffset": 39848,
      "componentType": 5126,
      "count": 120,
      "max": [
        0.7113199234008789,
        0.46803393959999084
      ],
      "min": [
        0.7113199234008789,
        0.46803393959999084
      ],
      "type": "VEC2"
    },
    {
      "bufferView": 0,
      "byteOffset": 32820,
      "componentType": 5125,
      "count": 192,
      "type": "SCALAR"
    },
    {
      "bufferView": 2,
      "byteOffset": 122424,
      "componentType": 5126,
      "count": 112,
      "max": [
        0.4050252437591553,
        0.40259748697280884,
        0.2430533468723297
      ],
      "min": [
        -0.40633395314216614,
        -0.4065819978713989,
        0.17701417207717896
      ],
      "type": "VEC3"
    },
    {
      "bufferView": 2,
      "byteOffset": 123768,
      "componentType": 5126,
      "count": 112,
      "max": [
        0.9999995231628418,
        0.9999998807907104,
        0.9999918341636658
      ],
      "min": [
        -0.9999997615814209,
        -0.9999992847442627,
        -0.9999815225601196
      ],
      "type": "VEC3"
    },
    {
      "bufferView": 1,
      "byteOffset": 40808,
      "componentType": 5126,
      "count": 112,
      "max": [
        0.7113199234008789,
        0.46803393959999084
      ],
      "min": [
        0.7113199234008789,
        0.46803393959999084
      ],
      "type": "VEC2"
    },
    {
      "bufferView": 0,
      "byteOffset": 33588,
      "componentType": 5125,
      "count": 216,
      "type": "SCALAR"
    },
    {
      "bufferView": 2,
      "byteOffset": 125112,
      "componentType": 5126,
      "count": 477,
      "max": [
        0.3872072696685791,
        0.385033518075943,
        0.2928270399570465
      ],
      "min": [
        -0.3874834477901459,
        -0.3896622061729431,
        -0.3150697946548462
      ],
      "type": "VEC3"
    },
    {
      "bufferView": 2,
      "byteOffset": 130836,
      "componentType": 5126,
      "count": 477,
      "max": [
        0.9999933838844299,
        0.999995231628418,
        0.9999601244926453
      ],
      "min": [
        -0.99997478723526,
        -0.9999774694442749,
        -0.9999991059303284
      ],
      "type": "VEC3"
    },
    {
      "bufferView": 1,
      "byteOffset": 41704,
      "componentType": 5126,
      "count": 477,
      "max": [
        0.7791910171508789,
        0.22828787565231323
      ],
      "min": [
        0.7791910171508789,
        0.22828787565231323
      ],
      "type": "VEC2"
    },
    {
      "bufferView": 0,
      "byteOffset": 34452,
      "componentType": 5125,
      "count": 795,
      "type": "SCALAR"
    },
    {
      "bufferView": 2,
      "byteOffset": 136560,
      "componentType": 5126,
      "count": 483,
      "max": [
        0.08140533417463303,
        0.13294047117233276,
        0.2802300751209259
      ],
      "min": [
        -0.20212697982788086,
        -0.13205699622631073,
        -0.4997359812259674
      ],
      "type": "VEC3"
    },
    {
      "bufferView": 2,
      "byteOffset": 142356,
      "componentType": 5126,
      "count": 483,
      "max": [
        1.0,
        1.0,
        1.0
      ],
      "min": [
        -1.0,
        -1.0,
        -1.0
      ],
      "type": "VEC3"
    },
    {
      "bufferView": 1,
      "byteOffset": 45520,
      "componentType": 5126,
      "count": 483,
      "max": [
        0.7743082046508789,
        0.47682300209999084
      ],
      "min": [
        0.7743082046508789,
        0.47682300209999084
      ],
      "type": "VEC2"
    },
    {
      "bufferView": 0,
      "byteOffset": 37632,
      "componentType": 5125,
      "count": 783,
      "type": "SCALAR"
    },
    {
      "bufferView": 2,
      "byteOffset": 148152,
      "componentType": 5126,
      "count": 133,
      "max": [
        0.023786654695868492,
        0.09363437443971634,
        0.1341257095336914
      ],
      "min": [
        -0.16404761373996735,
        -0.09300228953361511,
        -0.3947271704673767
      ],
      "type": "VEC3"
    },
    {
      "bufferView": 2,
      "byteOffset": 149748,
      "componentType": 5126,
      "count": 133,
      "max": [
        0.9022836685180664,
        0.9717044830322266,
        0.992628812789917
      ],
      "min": [
        -0.9925307631492615,
        -0.9779587984085083,
        -0.9484919905662537
      ],
      "type": "VEC3"
    },
    {
      "bufferView": 1,
      "byteOffset": 49384,
      "componentType": 5126,
      "count": 133,
      "max": [
        0.7791910171508789,
        0.47682300209999084
      ],
      "min": [
        0.7743082046508789,
        0.22828787565231323
      ],
      "type": "VEC2"
    },
    {
      "bufferView": 0,
      "byteOffset": 40764,
      "componentType": 5125,
      "count": 195,
      "type": "SCALAR"
    },
    {
      "bufferView": 2,
      "byteOffset": 151344,
      "componentType": 5126,
      "count": 231,
      "max": [
        0.05071580782532692,
        0.601857602596283,
        0.594765841960907
      ],
      "min": [
        -0.04256060719490051,
        -0.6208477020263672,
        -0.5680961608886719
      ],
      "type": "VEC3"
    },
    {
      "bufferView": 2,
      "byteOffset": 154116,
      "componentType": 5126,
      "count": 231,
      "max": [
        0.9997360706329346,
        0.9510565400123596,
        1.0
      ],
      "min": [
        -1.0,
        -0.9510565400123596,
        -1.0
      ],
      "type": "VEC3"
    },
    {
      "bufferView": 1,
      "byteOffset": 50448,
      "componentType": 5126,
      "count": 231,
      "max": [
        0.7758951187133789,
        0.47120776772499084
      ],
      "min": [
        0.7002115249633789,
        0.23097342252731323
      ],
      "type": "VEC2"
    },
    {
      "bufferView": 0,
      "byteOffset": 41544,
      "componentType": 5125,
      "count": 363,
      "type": "SCALAR"
    },
    {
      "bufferView": 2,
      "byteOffset": 156888,
      "componentType": 5126,
      "count": 229,
      "max": [
        0.04895539954304695,
        0.5366253852844238,
        0.5561392903327942
      ],
      "min": [
        -0.08400168269872665,
        -0.5798206329345703,
        -0.5347654819488525
      ],
      "type": "VEC3"
    },
    {
      "bufferView": 2,
      "byteOffset": 159636,
      "componentType": 5126,
      "count": 229,
      "max": [
        1.0,
        1.0,
        0.6662415266036987
      ],
      "min": [
        -1.0,
        -1.0,
        -0.6650480031967163
      ],
      "type": "VEC3"
    },
    {
      "bufferView": 1,
      "byteOffset": 52296,
      "componentType": 5126,
      "count": 229,
      "max": [
        0.7792617678642273,
        0.23097342252731323
      ],
      "min": [
        0.7758951187133789,
        0.22511593997478485
      ],
      "type": "VEC2"
    },
    {
      "bufferView": 0,
      "byteOffset": 42996,
      "componentType": 5125,
      "count": 363,
      "type": "SCALAR"
    },
    {
      "bufferView": 2,
      "byteOffset": 162384,
      "componentType": 5126,
      "count": 620,
      "max": [
        0.4941881000995636,
        0.5223821997642517,
        0.5339961051940918
      ],
      "min": [
        -0.499441921710968,
        -0.5223821997642517,
        -0.5336582660675049
      ],
      "type": "VEC3"
    },
    {
      "bufferView": 2,
      "byteOffset": 169824,
      "componentType": 5126,
      "count": 620,
      "max": [
        1.0,
        1.0,
        1.0
      ],
      "min": [
        -1.0,
        -1.0,
        -1.0
      ],
      "type": "VEC3"
    },
    {
      "bufferView": 1,
      "byteOffset": 54128,
      "componentType": 5126,
      "count": 620,
      "max": [
        0.7791435718536377,
        0.23097342252731323
      ],
      "min": [
        0.7758951187133789,
        0.22511593997478485
      ],
      "type": "VEC2"
    },
    {
      "bufferView": 0,
      "byteOffset": 44448,
      "componentType": 5125,
      "count": 948,
      "type": "SCALAR"
    },
    {
      "bufferView": 2,
      "byteOffset": 177264,
      "componentType": 5126,
      "count": 320,
      "max": [
        0.5251765251159668,
        0.5522032380104065,
        0.3242745101451874
      ],
      "min": [
        -0.5251765251159668,
        -0.5522032380104065,
        -0.325969934463501
      ],
      "type": "VEC3"
    },
    {
      "bufferView": 2,
      "byteOffset": 181104,
      "componentType": 5126,
      "count": 320,
      "max": [
        0.9885515570640564,
        0.9401683807373047,
        0.9860596656799316
      ],
      "min": [
        -0.9885515570640564,
        -0.9401683807373047,
        -0.9860597252845764
      ],
      "type": "VEC3"
    },
    {
      "bufferView": 1,
      "byteOffset": 59088,
      "componentType": 5126,
      "count": 320,
      "max": [
        0.7002115249633789,
        0.47120776772499084
      ],
      "min": [
        0.7002115249633789,
        0.47120776772499084
      ],
      "type": "VEC2"
    },
    {
      "bufferView": 0,
      "byteOffset": 48240,
      "componentType": 5125,
      "count": 480,
      "type": "SCALAR"
    },
    {
      "bufferView": 2,
      "byteOffset": 184944,
      "componentType": 5126,
      "count": 532,
      "max": [
        0.49821820855140686,
        0.5282570719718933,
        0.5249984264373779
      ],
      "min": [
        -0.506987452507019,
        -0.508764922618866,
        -0.5420090556144714
      ],
      "type": "VEC3"
    },
    {
      "bufferView": 2,
      "byteOffset": 191328,
      "componentType": 5126,
      "count": 532,
      "max": [
        0.9998446702957153,
        0.9980016946792603,
        0.9999945163726807
      ],
      "min": [
        -0.9997772574424744,
        -0.9961999654769897,
        -0.9999997615814209
      ],
      "type": "VEC3"
    },
    {
      "bufferView": 1,
      "byteOffset": 61648,
      "componentType": 5126,
      "count": 532,
      "max": [
        0.7791435718536377,
        0.23097342252731323
      ],
      "min": [
        0.7758951187133789,
        0.22316281497478485
      ],
      "type": "VEC2"
    },
    {
      "bufferView": 0,
      "byteOffset": 50160,
      "componentType": 5125,
      "count": 804,
      "type": "SCALAR"
    },
    {
      "bufferView": 2,
      "byteOffset": 197712,
      "componentType": 5126,
      "count": 374,
      "max": [
        0.5246228575706482,
        0.562383234500885,
        0.3153262138366699
      ],
      "min": [
        -0.5257301926612854,
        -0.542023241519928,
        -0.33491820096969604
      ],
      "type": "VEC3"
    },
    {
      "bufferView": 2,
      "byteOffset": 202200,
      "componentType": 5126,
      "count": 374,
      "max": [
        0.9885515570640564,
        0.9401684403419495,
        0.9860597252845764
      ],
      "min": [
        -0.9885515570640564,
        -0.9408788681030273,
        -0.9860597252845764
      ],
      "type": "VEC3"
    },
    {
      "bufferView": 1,
      "byteOffset": 65904,
      "componentType": 5126,
      "count": 374,
      "max": [
        0.7002115249633789,
        0.47120776772499084
      ],
      "min": [
        0.7002115249633789,
        0.47120776772499084
      ],
      "type": "VEC2"
    },
    {
      "bufferView": 0,
      "byteOffset": 53376,
      "componentType": 5125,
      "count": 576,
      "type": "SCALAR"
    },
    {
      "bufferView": 2,
      "byteOffset": 206688,
      "componentType": 5126,
      "count": 1636,
      "max": [
        0.5653276443481445,
        0.6060551404953003,
        0.7057943344116211
      ],
      "min": [
        -0.4283023774623871,
        -0.49575668573379517,
        -0.47751322388648987
      ],
      "type": "VEC3"
    },
    {
      "bufferView": 2,
      "byteOffset": 226320,
      "componentType": 5126,
      "count": 1636,
      "max": [
        1.0,
        1.0,
        1.0
      ],
      "min": [
        -1.0,
        -1.0,
        -1.0
      ],
      "type": "VEC3"
    },
    {
      "bufferView": 1,
      "byteOffset": 68896,
      "componentType": 5126,
      "count": 1636,
      "max": [
        0.7840263843536377,
        0.47120776772499084
      ],
      "min": [
        0.7002115249633789,
        0.21828000247478485
      ],
      "type": "VEC2"
    },
    {
      "bufferView": 0,
      "byteOffset": 55680,
      "componentType": 5125,
      "count": 2628,
      "type": "SCALAR"
    },
    {
      "bufferView": 2,
      "byteOffset": 245952,
      "componentType": 5126,
      "count": 446,
      "max": [
        0.5963160395622253,
        0.39836686849594116,
        0.7356153726577759
      ],
      "min": [
        -0.45403698086738586,
        -0.5636542439460754,
        -0.3687911331653595
      ],
      "type": "VEC3"
    },
    {
      "bufferView": 2,
      "byteOffset": 251304,
      "componentType": 5126,
      "count": 446,
      "max": [
        0.9983463287353516,
        1.0,
        0.9856487512588501
      ],
      "min": [
        -0.9885516166687012,
        -0.9860596656799316,
        -1.0
      ],
      "type": "VEC3"
    },
    {
      "bufferView": 1,
      "byteOffset": 81984,
      "componentType": 5126,
      "count": 446,
      "max": [
        0.7002115249633789,
        0.47120776772499084
      ],
      "min": [
        0.7002115249633789,
        0.47120776772499084
      ],
      "type": "VEC2"
    },
    {
      "bufferView": 0,
      "byteOffset": 66192,
      "componentType": 5125,
      "count": 678,
      "type": "SCALAR"
    },
    {
      "bufferView": 2,
      "byteOffset": 256656,
      "componentType": 5126,
      "count": 1223,
      "max": [
        0.49560633301734924,
        0.6109946966171265,
        0.7219561338424683
      ],
      "min": [
        -0.5095993280410767,
        -0.4902196526527405,
        -0.4549771249294281
      ],
      "type": "VEC3"
    },
    {
      "bufferView": 2,
      "byteOffset": 271332,
      "componentType": 5126,
      "count": 1223,
      "max": [
        0.9999708533287048,
        0.9999998211860657,
        1.0
      ],
      "min": [
        -0.9999591112136841,
        -0.9999944567680359,
        -1.0
      ],
      "type": "VEC3"
    },
    {
      "bufferView": 1,
      "byteOffset": 85552,
      "componentType": 5126,
      "count": 1223,
      "max": [
        0.7812700867652893,
        0.47120776772499084
      ],
      "min": [
        0.7002115249633789,
        0.22023312747478485
      ],
      "type": "VEC2"
    },
    {
      "bufferView": 0,
      "byteOffset": 68904,
      "componentType": 5125,
      "count": 1872,
      "type": "SCALAR"
    },
    {
      "bufferView": 2,
      "byteOffset": 286008,
      "componentType": 5126,
      "count": 500,
      "max": [
        0.5220109820365906,
        0.4039038419723511,
        0.75608229637146
      ],
      "min": [
        -0.528342068195343,
        -0.5581172108650208,
        -0.348324179649353
      ],
      "type": "VEC3"
    },
    {
      "bufferView": 2,
      "byteOffset": 292008,
      "componentType": 5126,
      "count": 500,
      "max": [
        0.9983463883399963,
        1.0,
        0.9856486320495605
      ],
      "min": [
        -0.9885515570640564,
        -0.9860596656799316,
        -1.0
      ],
      "type": "VEC3"
    },
    {
      "bufferView": 1,
      "byteOffset": 95336,
      "componentType": 5126,
      "count": 500,
      "max": [
        0.7002115249633789,
        0.47120776772499084
      ],
      "min": [
        0.7002115249633789,
        0.47120776772499084
      ],
      "type": "VEC2"
    },
    {
      "bufferView": 0,
      "byteOffset": 76392,
      "componentType": 5125,
      "count": 774,
      "type": "SCALAR"
    },
    {
      "bufferView": 2,
      "byteOffset": 298008,
      "componentType": 5126,
      "count": 912,
      "max": [
        0.704716145992279,
        1.2211945056915283,
        0.7389795780181885
      ],
      "min": [
        -0.7060368657112122,
        -1.2211945056915283,
        -0.4710692763328552
      ],
      "type": "VEC3"
    },
    {
      "bufferView": 2,
      "byteOffset": 308952,
      "componentType": 5126,
      "count": 912,
      "max": [
        1.0,
        1.0,
        1.0
      ],
      "min": [
        -1.0,
        -1.0,
        -1.0
      ],
      "type": "VEC3"
    },
    {
      "bufferView": 1,
      "byteOffset": 99336,
      "componentType": 5126,
      "count": 912,
      "max": [
        0.7765093445777893,
        0.23097342252731323
      ],
      "min": [
        0.7758951187133789,
        0.22216686606407166
      ],
      "type": "VEC2"
    },
    {
      "bufferView": 0,
      "byteOffset": 79488,
      "componentType": 5125,
      "count": 1896,
      "type": "SCALAR"
    },
    {
      "bufferView": 2,
      "byteOffset": 319896,
      "componentType": 5126,
      "count": 696,
      "max": [
        0.7008112668991089,
        1.2115521430969238,
        0.4563584327697754
      ],
      "min": [
        -0.7343090772628784,
        -1.2262307405471802,
        -0.758381724357605
      ],
      "type": "VEC3"
    },
    {
      "bufferView": 2,
      "byteOffset": 328248,
      "componentType": 5126,
      "count": 696,
      "max": [
        0.9999990463256836,
        0.9999876022338867,
        0.9999999403953552
      ],
      "min": [
        -0.9999811053276062,
        -0.9999972581863403,
        -1.0
      ],
      "type": "VEC3"
    },
    {
      "bufferView": 1,
      "byteOffset": 106632,
      "componentType": 5126,
      "count": 696,
      "max": [
        0.7773638367652893,
        0.23097342252731323
      ],
      "min": [
        0.7758951187133789,
        0.22521862387657166
      ],
      "type": "VEC2"
    },
    {
      "bufferView": 0,
      "byteOffset": 87072,
      "componentType": 5125,
      "count": 1158,
      "type": "SCALAR"
    },
    {
      "bufferView": 2,
      "byteOffset": 336600,
      "componentType": 5126,
      "count": 478,
      "max": [
        0.15120075643062592,
        0.2085321545600891,
        0.17796945571899414
      ],
      "min": [
        -0.15120075643062592,
        -0.2016853392124176,
        -0.24762673676013947
      ],
      "type": "VEC3"
    },
    {
      "bufferView": 2,
      "byteOffset": 342336,
      "componentType": 5126,
      "count": 478,
      "max": [
        0.998953104019165,
        0.9944232106208801,
        1.0
      ],
      "min": [
        -0.9989530444145203,
        -0.9965357780456543,
        -1.0
      ],
      "type": "VEC3"
    },
    {
      "bufferView": 1,
      "byteOffset": 112200,
      "componentType": 5126,
      "count": 478,
      "max": [
        0.27299103140830994,
        0.47025927901268005
      ],
      "min": [
        0.27299103140830994,
        0.47025927901268005
      ],
      "type": "VEC2"
    },
    {
      "bufferView": 0,
      "byteOffset": 91704,
      "componentType": 5125,
      "count": 738,
      "type": "SCALAR"
    },
    {
      "bufferView": 2,
      "byteOffset": 348072,
      "componentType": 5126,
      "count": 497,
      "max": [
        0.1450081169605255,
        0.17676296830177307,
        0.17509397864341736
      ],
      "min": [
        -0.15098214149475098,
        -0.22851495444774628,
        -0.2506618797779083
      ],
      "type": "VEC3"
    },
    {
      "bufferView": 2,
      "byteOffset": 354036,
      "componentType": 5126,
      "count": 497,
      "max": [
        0.9996657967567444,
        0.9931120276451111,
        0.9999999403953552
      ],
      "min": [
        -0.9991944432258606,
        -0.99993896484375,
        -0.9999831914901733
      ],
      "type": "VEC3"
    },
    {
      "bufferView": 1,
      "byteOffset": 116024,
      "componentType": 5126,
      "count": 497,
      "max": [
        0.27299103140830994,
        0.47025927901268005
      ],
      "min": [
        0.27299103140830994,
        0.47025927901268005
      ],
      "type": "VEC2"
    },
    {
      "bufferView": 0,
      "byteOffset": 94656,
      "componentType": 5125,
      "count": 870,
      "type": "SCALAR"
    },
    {
      "bufferView": 2,
      "byteOffset": 360000,
      "componentType": 5126,
      "count": 516,
      "max": [
        0.32829055190086365,
        1.1807353496551514,
        0.24950839579105377
      ],
      "min": [
        -0.32829055190086365,
        -1.1807355880737305,
        -0.2771260142326355
      ],
      "type": "VEC3"
    },
    {
      "bufferView": 2,
      "byteOffset": 366192,
      "componentType": 5126,
      "count": 516,
      "max": [
        1.0,
        1.0,
        1.0
      ],
      "min": [
        -1.0,
        -1.0,
        -1.0
      ],
      "type": "VEC3"
    },
    {
      "bufferView": 1,
      "byteOffset": 120000,
      "componentType": 5126,
      "count": 516,
      "max": [
        0.7762613296508789,
        0.23451346158981323
      ],
      "min": [
        0.7758951187133789,
        0.23097342252731323
      ],
      "type": "VEC2"
    },
    {
      "bufferView": 0,
      "byteOffset": 98136,
      "componentType": 5125,
      "count": 924,
      "type": "SCALAR"
    },
    {
      "bufferView": 2,
      "byteOffset": 372384,
      "componentType": 5126,
      "count": 856,
      "max": [
        0.32048386335372925,
        1.1743139028549194,
        0.22313879430294037
      ],
      "min": [
        -0.33517009019851685,
        -1.1870040893554688,
        -0.3033396303653717
      ],
      "type": "VEC3"
    },
    {
      "bufferView": 2,
      "byteOffset": 382656,
      "componentType": 5126,
      "count": 856,
      "max": [
        0.9999953508377075,
        0.9999939203262329,
        0.9999997615814209
      ],
      "min": [
        -0.9999944567680359,
        -0.9999998211860657,
        -0.9999998807907104
      ],
      "type": "VEC3"
    },
    {
      "bufferView": 1,
      "byteOffset": 124128,
      "componentType": 5126,
      "count": 856,
      "max": [
        0.7758951187133789,
        0.23097342252731323
      ],
      "min": [
        0.7758951187133789,
        0.23097342252731323
      ],
      "type": "VEC2"
    },
    {
      "bufferView": 0,
      "byteOffset": 101832,
      "componentType": 5125,
      "count": 858,
      "type": "SCALAR"
    },
    {
      "bufferView": 2,
      "byteOffset": 392928,
      "componentType": 5126,
      "count": 325,
      "max": [
        0.11850608885288239,
        0.08597949147224426,
        0.12477321922779083
      ],
      "min": [
        -0.0756879448890686,
        -0.0863054171204567,
        -0.04044531658291817
      ],
      "type": "VEC3"
    },
    {
      "bufferView": 2,
      "byteOffset": 396828,
      "componentType": 5126,
      "count": 325,
      "max": [
        0.9677181243896484,
        0.9998119473457336,
        1.0
      ],
      "min": [
        -0.9998881816864014,
        -0.9993240237236023,
        -1.0
      ],
      "type": "VEC3"
    },
    {
      "bufferView": 1,
      "byteOffset": 130976,
      "componentType": 5126,
      "count": 325,
      "max": [
        0.7918863296508789,
        0.8513346910476685
      ],
      "min": [
        0.7791910171508789,
        0.22828787565231323
      ],
      "type": "VEC2"
    },
    {
      "bufferView": 0,
      "byteOffset": 105264,
      "componentType": 5125,
      "count": 462,
      "type": "SCALAR"
    },
    {
      "bufferView": 2,
      "byteOffset": 400728,
      "componentType": 5126,
      "count": 320,
      "max": [
        0.11850608885288239,
        0.08597949147224426,
        0.07294386625289917
      ],
      "min": [
        -0.0756879448890686,
        -0.0863054171204567,
        -0.034863509237766266
      ],
      "type": "VEC3"
    },
    {
      "bufferView": 2,
      "byteOffset": 404568,
      "componentType": 5126,
      "count": 320,
      "max": [
        0.9677183628082275,
        0.9998118877410889,
        1.0
      ],
      "min": [
        -0.9998881816864014,
        -0.9993240237236023,
        -1.0
      ],
      "type": "VEC3"
    },
    {
      "bufferView": 1,
      "byteOffset": 133576,
      "componentType": 5126,
      "count": 320,
      "max": [
        0.7918863296508789,
        0.8513346910476685
      ],
      "min": [
        0.7791910171508789,
        0.22828787565231323
      ],
      "type": "VEC2"
    },
    {
      "bufferView": 0,
      "byteOffset": 107112,
      "componentType": 5125,
      "count": 462,
      "type": "SCALAR"
    },
    {
      "bufferView": 2,
      "byteOffset": 408408,
      "componentType": 5126,
      "count": 122,
      "max": [
        0.21998494863510132,
        0.21998494863510132,
        0.026067174971103668
      ],
      "min": [
        -0.21998494863510132,
        -0.21998494863510132,
        -0.024084188044071198
      ],
      "type": "VEC3"
    },
    {
      "bufferView": 2,
      "byteOffset": 409872,
      "componentType": 5126,
      "count": 122,
      "max": [
        0.9238795638084412,
        0.9238795638084412,
        1.0
      ],
      "min": [
        -0.9238795638084412,
        -0.9238795638084412,
        -1.0
      ],
      "type": "VEC3"
    },
    {
      "bufferView": 1,
      "byteOffset": 136136,
      "componentType": 5126,
      "count": 122,
      "max": [
        0.7772378921508789,
        0.22562116384506226
      ],
      "min": [
        0.7772378921508789,
        0.22562116384506226
      ],
      "type": "VEC2"
    },
    {
      "bufferView": 0,
      "byteOffset": 108960,
      "componentType": 5125,
      "count": 192,
      "type": "SCALAR"
    },
    {
      "bufferView": 2,
      "byteOffset": 411336,
      "componentType": 5126,
      "count": 200,
      "max": [
        0.2028321772813797,
        0.2028321772813797,
        0.07835874706506729
      ],
      "min": [
        -0.2028321772813797,
        -0.2028321772813797,
        -0.03478122502565384
      ],
      "type": "VEC3"
    },
    {
      "bufferView": 2,
      "byteOffset": 413736,
      "componentType": 5126,
      "count": 200,
      "max": [
        0.9238795042037964,
        0.9238793849945068,
        1.0
      ],
      "min": [
        -0.9238795042037964,
        -0.9238793849945068,
        -1.0
      ],
      "type": "VEC3"
    },
    {
      "bufferView": 1,
      "byteOffset": 137112,
      "componentType": 5126,
      "count": 200,
      "max": [
        0.7772378921508789,
        0.22562116384506226
      ],
      "min": [
        0.7772378921508789,
        0.22562116384506226
      ],
      "type": "VEC2"
    },
    {
      "bufferView": 0,
      "byteOffset": 109728,
      "componentType": 5125,
      "count": 336,
      "type": "SCALAR"
    },
    {
      "bufferView": 2,
      "byteOffset": 416136,
      "componentType": 5126,
      "count": 208,
      "max": [
        0.14964669942855835,
        0.14964669942855835,
        0.07835874706506729
      ],
      "min": [
        -0.14964669942855835,
        -0.14964669942855835,
        -0.03478122502565384
      ],
      "type": "VEC3"
    },
    {
      "bufferView": 2,
      "byteOffset": 418632,
      "componentType": 5126,
      "count": 208,
      "max": [
        0.9238795042037964,
        0.9238795042037964,
        1.0
      ],
      "min": [
        -0.9238795042037964,
        -0.9238795042037964,
        -1.0
      ],
      "type": "VEC3"
    },
    {
      "bufferView": 1,
      "byteOffset": 138712,
      "componentType": 5126,
      "count": 208,
      "max": [
        0.7772378921508789,
        0.22562116384506226
      ],
      "min": [
        0.7772378921508789,
        0.22562116384506226
      ],
      "type": "VEC2"
    },
    {
      "bufferView": 0,
      "byteOffset": 111072,
      "componentType": 5125,
      "count": 336,
      "type": "SCALAR"
    },
    {
      "bufferView": 2,
      "byteOffset": 421128,
      "componentType": 5126,
      "count": 360,
      "max": [
        0.10598460584878922,
        0.08052125573158264,
        0.12551116943359375
      ],
      "min": [
        -0.08228718489408493,
        -0.07788768410682678,
        -0.03970736265182495
      ],
      "type": "VEC3"
    },
    {
      "bufferView": 2,
      "byteOffset": 425448,
      "componentType": 5126,
      "count": 360,
      "max": [
        0.9835014343261719,
        0.9998119473457336,
        1.0
      ],
      "min": [
        -0.9998881816864014,
        -0.9992534518241882,
        -1.0
      ],
      "type": "VEC3"
    },
    {
      "bufferView": 1,
      "byteOffset": 140376,
      "componentType": 5126,
      "count": 360,
      "max": [
        0.7918863296508789,
        0.8513346910476685
      ],
      "min": [
        0.7791910171508789,
        0.22828787565231323
      ],
      "type": "VEC2"
    },
    {
      "bufferView": 0,
      "byteOffset": 112416,
      "componentType": 5125,
      "count": 522,
      "type": "SCALAR"
    },
    {
      "bufferView": 2,
      "byteOffset": 429768,
      "componentType": 5126,
      "count": 347,
      "max": [
        0.10818728804588318,
        0.08538650721311569,
        0.07232978194952011
      ],
      "min": [
        -0.07966017723083496,
        -0.08689840137958527,
        -0.035477593541145325
      ],
      "type": "VEC3"
    },
    {
      "bufferView": 2,
      "byteOffset": 433932,
      "componentType": 5126,
      "count": 347,
      "max": [
        0.9692420959472656,
        0.9998119473457336,
        1.0
      ],
      "min": [
        -0.9998881816864014,
        -0.9993240237236023,
        -1.0
      ],
      "type": "VEC3"
    },
    {
      "bufferView": 1,
      "byteOffset": 143256,
      "componentType": 5126,
      "count": 347,
      "max": [
        0.7918863296508789,
        0.8513346910476685
      ],
      "min": [
        0.7791910171508789,
        0.22828787565231323
      ],
      "type": "VEC2"
    },
    {
      "bufferView": 0,
      "byteOffset": 114504,
      "componentType": 5125,
      "count": 498,
      "type": "SCALAR"
    },
    {
      "bufferView": 2,
      "byteOffset": 438096,
      "componentType": 5126,
      "count": 144,
      "max": [
        0.22736525535583496,
        0.18743929266929626,
        0.028193507343530655
      ],
      "min": [
        -0.21260464191436768,
        -0.23006759583950043,
        -0.025731150060892105
      ],
      "type": "VEC3"
    },
    {
      "bufferView": 2,
      "byteOffset": 439824,
      "componentType": 5126,
      "count": 144,
      "max": [
        0.8045097589492798,
        1.0,
        1.0
      ],
      "min": [
        -0.9238795638084412,
        -0.9238795638084412,
        -1.0
      ],
      "type": "VEC3"
    },
    {
      "bufferView": 1,
      "byteOffset": 146032,
      "componentType": 5126,
      "count": 144,
      "max": [
        0.7772378921508789,
        0.22562116384506226
      ],
      "min": [
        0.7772378921508789,
        0.22562116384506226
      ],
      "type": "VEC2"
    },
    {
      "bufferView": 0,
      "byteOffset": 116496,
      "componentType": 5125,
      "count": 228,
      "type": "SCALAR"
    },
    {
      "bufferView": 2,
      "byteOffset": 441552,
      "componentType": 5126,
      "count": 246,
      "max": [
        0.18652679026126862,
        0.19789522886276245,
        0.08318787813186646
      ],
      "min": [
        -0.2069472372531891,
        -0.20785698294639587,
        -0.041783638298511505
      ],
      "type": "VEC3"
    },
    {
      "bufferView": 2,
      "byteOffset": 444504,
      "componentType": 5126,
      "count": 246,
      "max": [
        0.9238794445991516,
        0.933353841304779,
        1.0
      ],
      "min": [
        -0.9991618990898132,
        -0.9340783357620239,
        -1.0
      ],
      "type": "VEC3"
    },
    {
      "bufferView": 1,
      "byteOffset": 147184,
      "componentType": 5126,
      "count": 246,
      "max": [
        0.7772378921508789,
        0.22562116384506226
      ],
      "min": [
        0.7772378921508789,
        0.22562116384506226
      ],
      "type": "VEC2"
    },
    {
      "bufferView": 0,
      "byteOffset": 117408,
      "componentType": 5125,
      "count": 372,
      "type": "SCALAR"
    },
    {
      "bufferView": 2,
      "byteOffset": 447456,
      "componentType": 5126,
      "count": 249,
      "max": [
        0.15422393381595612,
        0.15087854862213135,
        0.06907114386558533
      ],
      "min": [
        -0.14506946504116058,
        -0.14841485023498535,
        -0.0440688356757164
      ],
      "type": "VEC3"
    },
    {
      "bufferView": 2,
      "byteOffset": 450444,
      "componentType": 5126,
      "count": 249,
      "max": [
        0.9257434010505676,
        0.9257343411445618,
        1.0
      ],
      "min": [
        -0.9488940238952637,
        -0.9238795638084412,
        -1.0
      ],
      "type": "VEC3"
    },
    {
      "bufferView": 1,
      "byteOffset": 149152,
      "componentType": 5126,
      "count": 249,
      "max": [
        0.7772378921508789,
        0.22562116384506226
      ],
      "min": [
        0.7772378921508789,
        0.22562116384506226
      ],
      "type": "VEC2"
    },
    {
      "bufferView": 0,
      "byteOffset": 118896,
      "componentType": 5125,
      "count": 402,
      "type": "SCALAR"
    },
    {
      "bufferView": 2,
      "byteOffset": 453432,
      "componentType": 5126,
      "count": 980,
      "max": [
        0.6736224293708801,
        0.7700678110122681,
        0.9584401845932007
      ],
      "min": [
        -0.7889313697814941,
        -0.7677521109580994,
        -0.304231196641922
      ],
      "type": "VEC3"
    },
    {
      "bufferView": 2,
      "byteOffset": 465192,
      "componentType": 5126,
      "count": 980,
      "max": [
        1.0,
        1.0,
        1.0
      ],
      "min": [
        -1.0,
        -1.0,
        -1.0
      ],
      "type": "VEC3"
    },
    {
      "bufferView": 1,
      "byteOffset": 151144,
      "componentType": 5126,
      "count": 980,
      "max": [
        0.7918863296508789,
        0.8513346910476685
      ],
      "min": [
        0.7767534852027893,
        0.21667370200157166
      ],
      "type": "VEC2"
    },
    {
      "bufferView": 0,
      "byteOffset": 120504,
      "componentType": 5125,
      "count": 1440,
      "type": "SCALAR"
    },
    {
      "bufferView": 2,
      "byteOffset": 476952,
      "componentType": 5126,
      "count": 206,
      "max": [
        0.1281352937221527,
        0.14795787632465363,
        0.16518867015838623
      ],
      "min": [
        -0.12813527882099152,
        -0.14795787632465363,
        -0.16387155652046204
      ],
      "type": "VEC3"
    },
    {
      "bufferView": 2,
      "byteOffset": 479424,
      "componentType": 5126,
      "count": 206,
      "max": [
        0.9916048049926758,
        0.8587549328804016,
        1.0
      ],
      "min": [
        -0.9916048049926758,
        -0.8587549328804016,
        -1.0
      ],
      "type": "VEC3"
    },
    {
      "bufferView": 1,
      "byteOffset": 158984,
      "componentType": 5126,
      "count": 206,
      "max": [
        0.8983316421508789,
        0.42750662565231323
      ],
      "min": [
        0.40516766905784607,
        0.29762381315231323
      ],
      "type": "VEC2"
    },
    {
      "bufferView": 0,
      "byteOffset": 126264,
      "componentType": 5125,
      "count": 324,
      "type": "SCALAR"
    },
    {
      "bufferView": 2,
      "byteOffset": 481896,
      "componentType": 5126,
      "count": 198,
      "max": [
        0.061619654297828674,
        0.07115224003791809,
        0.21615488827228546
      ],
      "min": [
        -0.06161963567137718,
        -0.07115224003791809,
        -0.2353060096502304
      ],
      "type": "VEC3"
    },
    {
      "bufferView": 2,
      "byteOffset": 484272,
      "componentType": 5126,
      "count": 198,
      "max": [
        1.0,
        0.8660255670547485,
        1.0
      ],
      "min": [
        -1.0,
        -0.8660255670547485,
        -1.0
      ],
      "type": "VEC3"
    },
    {
      "bufferView": 1,
      "byteOffset": 160632,
      "componentType": 5126,
      "count": 198,
      "max": [
        0.8983316421508789,
        0.42750662565231323
      ],
      "min": [
        0.40516766905784607,
        0.29762381315231323
      ],
      "type": "VEC2"
    },
    {
      "bufferView": 0,
      "byteOffset": 127560,
      "componentType": 5125,
      "count": 324,
      "type": "SCALAR"
    },
    {
      "bufferView": 2,
      "byteOffset": 486648,
      "componentType": 5126,
      "count": 189,
      "max": [
        0.0914379209280014,
        0.0914379209280014,
        0.0933682769536972
      ],
      "min": [
        -0.0914379209280014,
        -0.0914379209280014,
        -0.17654722929000854
      ],
      "type": "VEC3"
    },
    {
      "bufferView": 2,
      "byteOffset": 488916,
      "componentType": 5126,
      "count": 189,
      "max": [
        0.9635906219482422,
        0.9635906219482422,
        1.0
      ],
      "min": [
        -0.9635906219482422,
        -0.9635906219482422,
        -1.0
      ],
      "type": "VEC3"
    },
    {
      "bufferView": 1,
      "byteOffset": 162216,
      "componentType": 5126,
      "count": 189,
      "max": [
        0.8983316421508789,
        0.35524100065231323
      ],
      "min": [
        0.40516766905784607,
        0.29762381315231323
      ],
      "type": "VEC2"
    },
    {
      "bufferView": 0,
      "byteOffset": 128856,
      "componentType": 5125,
      "count": 348,
      "type": "SCALAR"
    },
    {
      "bufferView": 2,
      "byteOffset": 491184,
      "componentType": 5126,
      "count": 237,
      "max": [
        0.2080514281988144,
        0.712719202041626,
        0.6355988383293152
      ],
      "min": [
        -0.2804783880710602,
        -0.7929823398590088,
        -0.6350286602973938
      ],
      "type": "VEC3"
    },
    {
      "bufferView": 2,
      "byteOffset": 494028,
      "componentType": 5126,
      "count": 237,
      "max": [
        1.0,
        1.0,
        1.0
      ],
      "min": [
        -1.0,
        -1.0,
        -1.0
      ],
      "type": "VEC3"
    },
    {
      "bufferView": 1,
      "byteOffset": 163728,
      "componentType": 5126,
      "count": 237,
      "max": [
        0.7791435718536377,
        0.23097342252731323
      ],
      "min": [
        0.7758951187133789,
        0.22511593997478485
      ],
      "type": "VEC2"
    },
    {
      "bufferView": 0,
      "byteOffset": 130248,
      "componentType": 5125,
      "count": 372,
      "type": "SCALAR"
    },
    {
      "bufferView": 2,
      "byteOffset": 496872,
      "componentType": 5126,
      "count": 600,
      "max": [
        0.43224263191223145,
        0.6168056726455688,
        0.9205495715141296
      ],
      "min": [
        -0.5278317332267761,
        -0.6210100650787354,
        -1.1175109148025513
      ],
      "type": "VEC3"
    },
    {
      "bufferView": 2,
      "byteOffset": 504072,
      "componentType": 5126,
      "count": 600,
      "max": [
        1.0,
        1.0,
        1.0
      ],
      "min": [
        -1.0,
        -1.0,
        -1.0
      ],
      "type": "VEC3"
    },
    {
      "bufferView": 1,
      "byteOffset": 165624,
      "componentType": 5126,
      "count": 600,
      "max": [
        0.7791910171508789,
        0.22828787565231323
      ],
      "min": [
        0.7791435718536377,
        0.22511593997478485
      ],
      "type": "VEC2"
    },
    {
      "bufferView": 0,
      "byteOffset": 131736,
      "componentType": 5125,
      "count": 900,
      "type": "SCALAR"
    },
    {
      "bufferView": 2,
      "byteOffset": 511272,
      "componentType": 5126,
      "count": 761,
      "max": [
        0.35667964816093445,
        0.6305853128433228,
        0.9029952883720398
      ],
      "min": [
        -0.604570209980011,
        -0.60722815990448,
        -1.1391830444335938
      ],
      "type": "VEC3"
    },
    {
      "bufferView": 2,
      "byteOffset": 520404,
      "componentType": 5126,
      "count": 761,
      "max": [
        1.0,
        1.0,
        1.0
      ],
      "min": [
        -1.0,
        -1.0,
        -1.0
      ],
      "type": "VEC3"
    },
    {
      "bufferView": 1,
      "byteOffset": 170424,
      "componentType": 5126,
      "count": 761,
      "max": [
        0.7806597352027893,
        0.22828787565231323
      ],
      "min": [
        0.7791910171508789,
        0.22595104575157166
      ],
      "type": "VEC2"
    },
    {
      "bufferView": 0,
      "byteOffset": 135336,
      "componentType": 5125,
      "count": 1512,
      "type": "SCALAR"
    },
    {
      "bufferView": 2,
      "byteOffset": 529536,
      "componentType": 5126,
      "count": 936,
      "max": [
        2.4044480323791504,
        3.371173620223999,
        0.5576788783073425
      ],
      "min": [
        -1.1608141660690308,
        -2.4913694858551025,
        -0.7513205409049988
      ],
      "type": "VEC3"
    },
    {
      "bufferView": 2,
      "byteOffset": 540768,
      "componentType": 5126,
      "count": 936,
      "max": [
        1.0,
        1.0,
        1.0
      ],
      "min": [
        -1.0,
        -1.0,
        -1.0
      ],
      "type": "VEC3"
    },
    {
      "bufferView": 1,
      "byteOffset": 176512,
      "componentType": 5126,
      "count": 936,
      "max": [
        0.7791435718536377,
        0.23097342252731323
      ],
      "min": [
        0.7755327820777893,
        0.22497448325157166
      ],
      "type": "VEC2"
    },
    {
      "bufferView": 0,
      "byteOffset": 141384,
      "componentType": 5125,
      "count": 1572,
      "type": "SCALAR"
    },
    {
      "bufferView": 2,
      "byteOffset": 552000,
      "componentType": 5126,
      "count": 1577,
      "max": [
        2.45052433013916,
        3.7710256576538086,
        0.389643132686615
      ],
      "min": [
        -1.121608018875122,
        -2.0896198749542236,
        -0.9240967631340027
      ],
      "type": "VEC3"
    },
    {
      "bufferView": 2,
      "byteOffset": 570924,
      "componentType": 5126,
      "count": 1577,
      "max": [
        1.0,
        1.0,
        1.0
      ],
      "min": [
        -1.0,
        -1.0,
        -1.0
      ],
      "type": "VEC3"
    },
    {
      "bufferView": 1,
      "byteOffset": 184000,
      "componentType": 5126,
      "count": 1577,
      "max": [
        0.7773638367652893,
        0.23097342252731323
      ],
      "min": [
        0.7758951187133789,
        0.22228893637657166
      ],
      "type": "VEC2"
    },
    {
      "bufferView": 0,
      "byteOffset": 147672,
      "componentType": 5125,
      "count": 2694,
      "type": "SCALAR"
    }
  ],
  "asset": {
    "extras": {
      "author": "i.we.d (https://sketchfab.com/i.we.d)",
      "license": "CC-BY-4.0 (http://creativecommons.org/licenses/by/4.0/)",
      "source": "https://sketchfab.com/3d-models/low-poly-tavern-interior-5a71f5639df14b7bb6a67cab93d22079",
      "title": "Low Poly Tavern Interior"
    },
    "generator": "Sketchfab-14.86.0",
    "version": "2.0"
  },
  "bufferViews": [
    {
      "buffer": 0,
      "byteLength": 158448,
      "name": "floatBufferViews",
      "target": 34963
    },
    {
      "buffer": 0,
      "byteLength": 196616,
      "byteOffset": 158448,
      "byteStride": 8,
      "name": "floatBufferViews",
      "target": 34962
    },
    {
      "buffer": 0,
      "byteLength": 589848,
      "byteOffset": 355064,
      "byteStride": 12,
      "name": "floatBufferViews",
      "target": 34962
    }
  ],
  "buffers": [
    {
      "byteLength": 944912,
      "uri": "scene.bin"
    }
  ],
  "images": [
    {
      "uri": "textures/Base_baseColor.png"
    }
  ],
  "materials": [
    {
      "doubleSided": true,
      "name": "Base",
      "pbrMetallicRoughness": {
        "baseColorTexture": {
          "index": 0
        },
        "metallicFactor": 0.0,
        "roughnessFactor": 0.8211145618000169
      }
    },
    {
      "doubleSided": true,
      "name": "Metall",
      "pbrMetallicRoughness": {
        "baseColorTexture": {
          "index": 0
        },
        "metallicFactor": 0.0
      }
    }
  ],
  "meshes": [
    {
      "name": "table1_Base_0",
      "primitives": [
        {
          "attributes": {
            "NORMAL": 1,
            "POSITION": 0,
            "TEXCOORD_0": 2
          },
          "indices": 3,
          "material": 0,
          "mode": 4
        }
      ]
    },
    {
      "name": "table1_Metall_0",
      "primitives": [
        {
          "attributes": {
            "NORMAL": 5,
            "POSITION": 4,
            "TEXCOORD_0": 6
          },
          "indices": 7,
          "material": 1,
          "mode": 4
        }
      ]
    },
    {
      "name": "box_Base_0",
      "primitives": [
        {
          "attributes": {
            "NORMAL": 9,
            "POSITION": 8,
            "TEXCOORD_0": 10
          },
          "indices": 11,
          "material": 0,
          "mode": 4
        }
      ]
    },
    {
      "name": "table1Shabby_Base_0",
      "primitives": [
        {
          "attributes": {
            "NORMAL": 13,
            "POSITION": 12,
            "TEXCOORD_0": 14
          },
          "indices": 15,
          "material": 0,
          "mode": 4
        }
      ]
    },
    {
      "name": "table1Shabby_Metall_0",
      "primitives": [
        {
          "attributes": {
            "NORMAL": 17,
            "POSITION": 16,
            "TEXCOORD_0": 18
          },
          "indices": 19,
          "material": 1,
          "mode": 4
        }
      ]
    },
    {
      "name": "boxShabby_Base_0",
      "primitives": [
        {
          "attributes": {
            "NORMAL": 21,
            "POSITION": 20,
            "TEXCOORD_0": 22
          },
          "indices": 23,
          "material": 0,
          "mode": 4
        }
      ]
    },
    {
      "name": "mug_Base_0",
      "primitives": [
        {
          "attributes": {
            "NORMAL": 25,
            "POSITION": 24,
            "TEXCOORD_0": 26
          },
          "indices": 27,
          "material": 0,
          "mode": 4
        }
      ]
    },
    {
      "name": "mug_Metall_0",
      "primitives": [
        {
          "attributes": {
            "NORMAL": 29,
            "POSITION": 28,
            "TEXCOORD_0": 30
          },
          "indices": 31,
          "material": 1,
          "mode": 4
        }
      ]
    },
    {
      "name": "mugShabby_Base_0",
      "primitives": [
        {
          "attributes": {
            "NORMAL": 33,
            "POSITION": 32,
            "TEXCOORD_0": 34
          },
          "indices": 35,
          "material": 0,
          "mode": 4
        }
      ]
    },
    {
      "name": "mugShabby_Metall_0",
      "primitives": [
        {
          "attributes": {
            "NORMAL": 37,
            "POSITION": 36,
            "TEXCOORD_0": 38
          },
          "indices": 39,
          "material": 1,
          "mode": 4
        }
      ]
    },
    {
      "name": "flag_Base_0",
      "primitives": [
        {
          "attributes": {
            "NORMAL": 41,
            "POSITION": 40,
            "TEXCOORD_0": 42
          },
          "indices": 43,
          "material": 0,
          "mode": 4
        }
      ]
    },
    {
      "name": "chair_Base_0",
      "primitives": [
        {
          "attributes": {
            "NORMAL": 45,
            "POSITION": 44,
            "TEXCOORD_0": 46
          },
          "indices": 47,
          "material": 0,
          "mode": 4
        }
      ]
    },
    {
      "name": "chair_Metall_0",
      "primitives": [
        {
          "attributes": {
            "NORMAL": 49,
            "POSITION": 48,
            "TEXCOORD_0": 50
          },
          "indices": 51,
          "material": 1,
          "mode": 4
        }
      ]
    },
    {
      "name": "chairShabby_Metall_0",
      "primitives": [
        {
          "attributes": {
            "NORMAL": 53,
            "POSITION": 52,
            "TEXCOORD_0": 54
          },
          "indices": 55,
          "material": 1,
          "mode": 4
        }
      ]
    },
    {
      "name": "chairShabby_Base_0",
      "primitives": [
        {
          "attributes": {
            "NORMAL": 57,
            "POSITION": 56,
            "TEXCOORD_0": 58
          },
          "indices": 59,
          "material": 0,
          "mode": 4
        }
      ]
    },
    {
      "name": "torch_Metall_0",
      "primitives": [
        {
          "attributes": {
            "NORMAL": 61,
            "POSITION": 60,
            "TEXCOORD_0": 62
          },
          "indices": 63,
          "material": 1,
          "mode": 4
        }
      ]
    },
    {
      "name": "torch_Base_0",
      "primitives": [
        {
          "attributes": {
            "NORMAL": 65,
            "POSITION": 64,
            "TEXCOORD_0": 66
          },
          "indices": 67,
          "material": 0,
          "mode": 4
        }
      ]
    },
    {
      "name": "shield_Metall_0",
      "primitives": [
        {
          "attributes": {
            "NORMAL": 69,
            "POSITION": 68,
            "TEXCOORD_0": 70
          },
          "indices": 71,
          "material": 1,
          "mode": 4
        }
      ]
    },
    {
      "name": "shield_Base_0",
      "primitives": [
        {
          "attributes": {
            "NORMAL": 73,
            "POSITION": 72,
            "TEXCOORD_0": 74
          },
          "indices": 75,
          "material": 0,
          "mode": 4
        }
      ]
    },
    {
      "name": "barrel_Base_0",
      "primitives": [
        {
          "attributes": {
            "NORMAL": 77,
            "POSITION": 76,
            "TEXCOORD_0": 78
          },
          "indices": 79,
          "material": 0,
          "mode": 4
        }
      ]
    },
    {
      "name": "barrel_Metall_0",
      "primitives": [
        {
          "attributes": {
            "NORMAL": 81,
            "POSITION": 80,
            "TEXCOORD_0": 82
          },
          "indices": 83,
          "material": 1,
          "mode": 4
        }
      ]
    },
    {
      "name": "barrelShabby_Base_0",
      "primitives": [
        {
          "attributes": {
            "NORMAL": 85,
            "POSITION": 84,
            "TEXCOORD_0": 86
          },
          "indices": 87,
          "material": 0,
          "mode": 4
        }
      ]
    },
    {
      "name": "barrelShabby_Metall_0",
      "primitives": [
        {
          "attributes": {
            "NORMAL": 89,
            "POSITION": 88,
            "TEXCOORD_0": 90
          },
          "indices": 91,
          "material": 1,
          "mode": 4
        }
      ]
    },
    {
      "name": "barrelCrane_Base_0",
      "primitives": [
        {
          "attributes": {
            "NORMAL": 93,
            "POSITION": 92,
            "TEXCOORD_0": 94
          },
          "indices": 95,
          "material": 0,
          "mode": 4
        }
      ]
    },
    {
      "name": "barrelCrane_Metall_0",
      "primitives": [
        {
          "attributes": {
            "NORMAL": 97,
            "POSITION": 96,
            "TEXCOORD_0": 98
          },
          "indices": 99,
          "material": 1,
          "mode": 4
        }
      ]
    },
    {
      "name": "barrelCraneShabby_Base_0",
      "primitives": [
        {
          "attributes": {
            "NORMAL": 101,
            "POSITION": 100,
            "TEXCOORD_0": 102
          },
          "indices": 103,
          "material": 0,
          "mode": 4
        }
      ]
    },
    {
      "name": "barrelCraneShabby_Metall_0",
      "primitives": [
        {
          "attributes": {
            "NORMAL": 105,
            "POSITION": 104,
            "TEXCOORD_0": 106
          },
          "indices": 107,
          "material": 1,
          "mode": 4
        }
      ]
    },
    {
      "name": "table2_Base_0",
      "primitives": [
        {
          "attributes": {
            "NORMAL": 109,
            "POSITION": 108,
            "TEXCOORD_0": 110
          },
          "indices": 111,
          "material": 0,
          "mode": 4
        }
      ]
    },
    {
      "name": "table2Shabby_Base_0",
      "primitives": [
        {
          "attributes": {
            "NORMAL": 113,
            "POSITION": 112,
            "TEXCOORD_0": 114
          },
          "indices": 115,
          "material": 0,
          "mode": 4
        }
      ]
    },
    {
      "name": "pitcher_Base_0",
      "primitives": [
        {
          "attributes": {
            "NORMAL": 117,
            "POSITION": 116,
            "TEXCOORD_0": 118
          },
          "indices": 119,
          "material": 0,
          "mode": 4
        }
      ]
    },
    {
      "name": "pitcherShabby_Base_0",
      "primitives": [
        {
          "attributes": {
            "NORMAL": 121,
            "POSITION": 120,
            "TEXCOORD_0": 122
          },
          "indices": 123,
          "material": 0,
          "mode": 4
        }
      ]
    },
    {
      "name": "bench_Base_0",
      "primitives": [
        {
          "attributes": {
            "NORMAL": 125,
            "POSITION": 124,
            "TEXCOORD_0": 126
          },
          "indices": 127,
          "material": 0,
          "mode": 4
        }
      ]
    },
    {
      "name": "benchShabby_Base_0",
      "primitives": [
        {
          "attributes": {
            "NORMAL": 129,
            "POSITION": 128,
            "TEXCOORD_0": 130
          },
          "indices": 131,
          "material": 0,
          "mode": 4
        }
      ]
    },
    {
      "name": "candleBig_Base_0",
      "primitives": [
        {
          "attributes": {
            "NORMAL": 133,
            "POSITION": 132,
            "TEXCOORD_0": 134
          },
          "indices": 135,
          "material": 0,
          "mode": 4
        }
      ]
    },
    {
      "name": "candleSmall_Base_0",
      "primitives": [
        {
          "attributes": {
            "NORMAL": 137,
            "POSITION": 136,
            "TEXCOORD_0": 138
          },
          "indices": 139,
          "material": 0,
          "mode": 4
        }
      ]
    },
    {
      "name": "plate1_Base_0",
      "primitives": [
        {
          "attributes": {
            "NORMAL": 141,
            "POSITION": 140,
            "TEXCOORD_0": 142
          },
          "indices": 143,
          "material": 0,
          "mode": 4
        }
      ]
    },
    {
      "name": "plate3_Base_0",
      "primitives": [
        {
          "attributes": {
            "NORMAL": 145,
            "POSITION": 144,
            "TEXCOORD_0": 146
          },
          "indices": 147,
          "material": 0,
          "mode": 4
        }
      ]
    },
    {
      "name": "plate2_Base_0",
      "primitives": [
        {
          "attributes": {
            "NORMAL": 149,
            "POSITION": 148,
            "TEXCOORD_0": 150
          },
          "indices": 151,
          "material": 0,
          "mode": 4
        }
      ]
    },
    {
      "name": "candleBigShabby_Base_0",
      "primitives": [
        {
          "attributes": {
            "NORMAL": 153,
            "POSITION": 152,
            "TEXCOORD_0": 154
          },
          "indices": 155,
          "material": 0,
          "mode": 4
        }
      ]
    },
    {
      "name": "candleSmallShabby_Base_0",
      "primitives": [
        {
          "attributes": {
            "NORMAL": 157,
            "POSITION": 156,
            "TEXCOORD_0": 158
          },
          "indices": 159,
          "material": 0,
          "mode": 4
        }
      ]
    },
    {
      "name": "plate1Shabby_Base_0",
      "primitives": [
        {
          "attributes": {
            "NORMAL": 161,
            "POSITION": 160,
            "TEXCOORD_0": 162
          },
          "indices": 163,
          "material": 0,
          "mode": 4
        }
      ]
    },
    {
      "name": "plate3Shabby_Base_0",
      "primitives": [
        {
          "attributes": {
            "NORMAL": 165,
            "POSITION": 164,
            "TEXCOORD_0": 166
          },
          "indices": 167,
          "material": 0,
          "mode": 4
        }
      ]
    },
    {
      "name": "plate2Shabby_Base_0",
      "primitives": [
        {
          "attributes": {
            "NORMAL": 169,
            "POSITION": 168,
            "TEXCOORD_0": 170
          },
          "indices": 171,
          "material": 0,
          "mode": 4
        }
      ]
    },
    {
      "name": "chandelier_Base_0",
      "primitives": [
        {
          "attributes": {
            "NORMAL": 173,
            "POSITION": 172,
            "TEXCOORD_0": 174
          },
          "indices": 175,
          "material": 0,
          "mode": 4
        }
      ]
    },
    {
      "name": "bottle1_Base_0",
      "primitives": [
        {
          "attributes": {
            "NORMAL": 177,
            "POSITION": 176,
            "TEXCOORD_0": 178
          },
          "indices": 179,
          "material": 0,
          "mode": 4
        }
      ]
    },
    {
      "name": "bottle2_Base_0",
      "primitives": [
        {
          "attributes": {
            "NORMAL": 181,
            "POSITION": 180,
            "TEXCOORD_0": 182
          },
          "indices": 183,
          "material": 0,
          "mode": 4
        }
      ]
    },
    {
      "name": "bottle3_Base_0",
      "primitives": [
        {
          "attributes": {
            "NORMAL": 185,
            "POSITION": 184,
            "TEXCOORD_0": 186
          },
          "indices": 187,
          "material": 0,
          "mode": 4
        }
      ]
    },
    {
      "name": "shelf_Base_0",
      "primitives": [
        {
          "attributes": {
            "NORMAL": 189,
            "POSITION": 188,
            "TEXCOORD_0": 190
          },
          "indices": 191,
          "material": 0,
          "mode": 4
        }
      ]
    },
    {
      "name": "cupboard_Base_0",
      "primitives": [
        {
          "attributes": {
            "NORMAL": 193,
            "POSITION": 192,
            "TEXCOORD_0": 194
          },
          "indices": 195,
          "material": 0,
          "mode": 4
        }
      ]
    },
    {
      "name": "cupboarShabby_Base_0",
      "primitives": [
        {
          "attributes": {
            "NORMAL": 197,
            "POSITION": 196,
            "TEXCOORD_0": 198
          },
          "indices": 199,
          "material": 0,
          "mode": 4
        }
      ]
    },
    {
      "name": "barCounter_Base_0",
      "primitives": [
        {
          "attributes": {
            "NORMAL": 201,
            "POSITION": 200,
            "TEXCOORD_0": 202
          },
          "indices": 203,
          "material": 0,
          "mode": 4
        }
      ]
    },
    {
      "name": "barCounterShavvy_Base_0",
      "primitives": [
        {
          "attributes": {
            "NORMAL": 205,
            "POSITION": 204,
            "TEXCOORD_0": 206
          },
          "indices": 207,
          "material": 0,
          "mode": 4
        }
      ]
    }
  ],
  "nodes": [
    {
      "children": [
        1
      ],
      "matrix": [
        1.0,
        0.0,
        0.0,
        0.0,
        0.0,
        -5.053215392444312e-16,
        1.0,
        0.0,
        0.0,
        -1.0,
        -5.053215392444312e-16,
        0.0,
        0.0,
        0.0,
        0.0,
        1.0
      ],
      "name": "Sketchfab_model"
    },
    {
      "children": [
        2
      ],
      "matrix": [
        1.0,
        0.0,
        0.0,
        0.0,
        0.0,
        -1.0,
        0.0,
        0.0,
        0.0,
        0.0,
        -1.0,
        0.0,
        0.0,
        0.0,
        0.0,
        1.0
      ],
      "name": "tavernForSF.fbx"
    },
    {
      "children": [
        3,
        6,
        8,
        11,
        13,
        16,
        19,
        21,
        24,
        27,
        30,
        33,
        36,
        39,
        42,
        45,
        47,
        49,
        51,
        53,
        55,
        57,
        59,
        61,
        63,
        65,
        67,
        69,
        71,
        73,
        75,
        77,
        79,
        81,
        83,
        85,
        87,
        89,
        91,
        93
      ],
      "name": "RootNode"
    },
    {
      "children": [
        4,
        5
      ],
      "matrix": [
        1.0,
        0.0,
        0.0,
        0.0,
        0.0,
        1.0,
        0.0,
        0.0,
        0.0,
        0.0,
        1.0,
        0.0,
        -3.753932237625122,
        0.47460100054740906,
        0.5091609954833984,
        1.0
      ],
      "name": "table1"
    },
    {
      "mesh": 0,
      "name": "table1_Base_0"
    },
    {
      "mesh": 1,
      "name": "table1_Metall_0"
    },
    {
      "children": [
        7
      ],
      "matrix": [
        1.0,
        0.0,
        0.0,
        0.0,
        0.0,
        1.0,
        0.0,
        0.0,
        0.0,
        0.0,
        1.0,
        0.0,
        -3.8396096229553223,
        -1.3211838006973267,
        0.4071334898471832,
        1.0
      ],
      "name": "box"
    },
    {
      "mesh": 2,
      "name": "box_Base_0"
    },
    {
      "children": [
        9,
        10
      ],
      "matrix": [
        1.0,
        0.0,
        0.0,
        0.0,
        0.0,
        1.0,
        0.0,
        0.0,
        0.0,
        0.0,
        1.0,
        0.0,
        -6.767204761505127,
        0.3522069752216339,
        0.8006666898727417,
        1.0
      ],
      "name": "table1Shabby"
    },
    {
      "mesh": 3,
      "name": "table1Shabby_Base_0"
    },
    {
      "mesh": 4,
      "name": "table1Shabby_Metall_0"
    },
    {
      "children": [
        12
      ],
      "matrix": [
        1.0,
        0.0,
        0.0,
        0.0,
        0.0,
        1.0,
        0.0,
        0.0,
        0.0,
        0.0,
        1.0,
        0.0,
        -6.811527729034424,
        -1.4150538444519043,
        0.3657938539981842,
        1.0
      ],
      "name": "boxShabby"
    },
    {
      "mesh": 5,
      "name": "boxShabby_Base_0"
    },
    {
      "children": [
        14,
        15
      ],
      "matrix": [
        1.0,
        0.0,
        0.0,
        0.0,
        0.0,
        1.0,
        0.0,
        0.0,
        0.0,
        0.0,
        1.0,
        0.0,
        -3.584357738494873,
        0.658234715461731,
        1.165386438369751,
        1.0
      ],
      "name": "mug"
    },
    {
      "mesh": 6,
      "name": "mug_Base_0"
    },
    {
      "mesh": 7,
      "name": "mug_Metall_0"
    },
    {
      "children": [
        17,
        18
      ],
      "matrix": [
        1.0,
        0.0,
        0.0,
        0.0,
        0.0,
        1.0,
        0.0,
        0.0,
        0.0,
        0.0,
        1.0,
        0.0,
        -6.969785213470459,
        0.6594809293746948,
        1.1532164812088013,
        1.0
      ],
      "name": "mugShabby"
    },
    {
      "mesh": 8,
      "name": "mugShabby_Base_0"
    },
    {
      "mesh": 9,
      "name": "mugShabby_Metall_0"
    },
    {
      "children": [
        20
      ],
      "matrix": [
        1.0,
        0.0,
        0.0,
        0.0,
        0.0,
        1.0,
        0.0,
        0.0,
        0.0,
        0.0,
        1.0,
        0.0,
        -3.7539899349212646,
        0.4749896228313446,
        0.8295326232910156,
        1.0
      ],
      "name": "flag"
    },
    {
      "mesh": 10,
      "name": "flag_Base_0"
    },
    {
      "children": [
        22,
        23
      ],
      "matrix": [
        1.0,
        0.0,
        0.0,
        0.0,
        0.0,
        1.0,
        0.0,
        0.0,
        0.0,
        0.0,
        1.0,
        0.0,
        -3.8265819549560547,
        2.039623260498047,
        0.23735179007053375,
        1.0
      ],
      "name": "chair"
    },
    {
      "mesh": 11,
      "name": "chair_Base_0"
    },
    {
      "mesh": 12,
      "name": "chair_Metall_0"
    },
    {
      "children": [
        25,
        26
      ],
      "matrix": [
        1.0,
        0.0,
        0.0,
        0.0,
        0.0,
        1.0,
        0.0,
        0.0,
        0.0,
        0.0,
        1.0,
        0.0,
        -6.7201619148254395,
        2.04270076751709,
        0.2244563102722168,
        1.0
      ],
      "name": "chairShabby"
    },
    {
      "mesh": 13,
      "name": "chairShabby_Metall_0"
    },
    {
      "mesh": 14,
      "name": "chairShabby_Base_0"
    },
    {
      "children": [
        28,
        29
      ],
      "matrix": [
        1.0,
        0.0,
        0.0,
        0.0,
        0.0,
        1.0,
        0.0,
        0.0,
        0.0,
        0.0,
        1.0,
        0.0,
        -2.412479877471924,
        -0.013497146777808666,
        1.6954890489578247,
        1.0
      ],
      "name": "torch"
    },
    {
      "mesh": 15,
      "name": "torch_Metall_0"
    },
    {
      "mesh": 16,
      "name": "torch_Base_0"
    },
    {
      "children": [
        31,
        32
      ],
      "matrix": [
        1.0,
        0.0,
        0.0,
        0.0,
        0.0,
        1.0,
        0.0,
        0.0,
        0.0,
        0.0,
        1.0,
        0.0,
        -2.250910520553589,
        1.0763542652130127,
        1.4974801540374756,
        1.0
      ],
      "name": "shield"
    },
    {
      "mesh": 17,
      "name": "shield_Metall_0"
    },
    {
      "mesh": 18,
      "name": "shield_Base_0"
    },
    {
      "children": [
        34,
        35
      ],
      "matrix": [
        1.0,
        0.0,
        0.0,
        0.0,
        0.0,
        1.0,
        0.0,
        0.0,
        0.0,
        0.0,
        1.0,
        0.0,
        -3.8917343616485596,
        3.5956273078918457,
        0.4457031786441803,
        1.0
      ],
      "name": "barrel"
    },
    {
      "mesh": 19,
      "name": "barrel_Base_0"
    },
    {
      "mesh": 20,
      "name": "barrel_Metall_0"
    },
    {
      "children": [
        37,
        38
      ],
      "matrix": [
        1.0,
        0.0,
        0.0,
        0.0,
        0.0,
        1.0,
        0.0,
        0.0,
        0.0,
        0.0,
        1.0,
        0.0,
        -6.780295372009277,
        3.585447311401367,
        0.45465147495269775,
        1.0
      ],
      "name": "barrelShabby"
    },
    {
      "mesh": 21,
      "name": "barrelShabby_Base_0"
    },
    {
      "mesh": 22,
      "name": "barrelShabby_Metall_0"
    },
    {
      "children": [
        40,
        41
      ],
      "matrix": [
        1.0,
        0.0,
        0.0,
        0.0,
        0.0,
        1.0,
        0.0,
        0.0,
        0.0,
        0.0,
        1.0,
        0.0,
        -3.962869644165039,
        5.270736217498779,
        0.2940896451473236,
        1.0
      ],
      "name": "barrelCrane"
    },
    {
      "mesh": 23,
      "name": "barrelCrane_Base_0"
    },
    {
      "mesh": 24,
      "name": "barrelCrane_Metall_0"
    },
    {
      "children": [
        43,
        44
      ],
      "matrix": [
        1.0,
        0.0,
        0.0,
        0.0,
        0.0,
        1.0,
        0.0,
        0.0,
        0.0,
        0.0,
        1.0,
        0.0,
        -6.92095422744751,
        5.265199184417725,
        0.27153390645980835,
        1.0
      ],
      "name": "barrelCraneShabby"
    },
    {
      "mesh": 25,
      "name": "barrelCraneShabby_Base_0"
    },
    {
      "mesh": 26,
      "name": "barrelCraneShabby_Metall_0"
    },
    {
      "children": [
        46
      ],
      "matrix": [
        1.0,
        0.0,
        0.0,
        0.0,
        0.0,
        1.0,
        0.0,
        0.0,
        0.0,
        0.0,
        1.0,
        0.0,
        -3.9161548614501953,
        7.61501932144165,
        0.2826135456562042,
        1.0
      ],
      "name": "table2"
    },
    {
      "mesh": 27,
      "name": "table2_Base_0"
    },
    {
      "children": [
        48
      ],
      "matrix": [
        1.0,
        0.0,
        0.0,
        0.0,
        0.0,
        1.0,
        0.0,
        0.0,
        0.0,
        0.0,
        1.0,
        0.0,
        -6.913084983825684,
        7.621469974517822,
        0.5709661245346069,
        1.0
      ],
      "name": "table2Shabby"
    },
    {
      "mesh": 28,
      "name": "table2Shabby_Base_0"
    },
    {
      "children": [
        50
      ],
      "matrix": [
        1.0,
        0.0,
        0.0,
        0.0,
        0.0,
        1.0,
        0.0,
        0.0,
        0.0,
        0.0,
        1.0,
        0.0,
        -3.7859792709350586,
        0.2441503256559372,
        1.2995574474334717,
        1.0
      ],
      "name": "pitcher"
    },
    {
      "mesh": 29,
      "name": "pitcher_Base_0"
    },
    {
      "children": [
        52
      ],
      "matrix": [
        1.0,
        0.0,
        0.0,
        0.0,
        0.0,
        1.0,
        0.0,
        0.0,
        0.0,
        0.0,
        1.0,
        0.0,
        -6.937833309173584,
        0.2723323702812195,
        1.302556037902832,
        1.0
      ],
      "name": "pitcherShabby"
    },
    {
      "mesh": 30,
      "name": "pitcherShabby_Base_0"
    },
    {
      "children": [
        54
      ],
      "matrix": [
        1.0,
        0.0,
        0.0,
        0.0,
        0.0,
        1.0,
        0.0,
        0.0,
        0.0,
        0.0,
        1.0,
        0.0,
        -2.4475295543670654,
        7.61501932144165,
        0.0619974285364151,
        1.0
      ],
      "name": "bench"
    },
    {
      "mesh": 31,
      "name": "bench_Base_0"
    },
    {
      "children": [
        56
      ],
      "matrix": [
        1.0,
        0.0,
        0.0,
        0.0,
        0.0,
        1.0,
        0.0,
        0.0,
        0.0,
        0.0,
        1.0,
        0.0,
        -8.427144050598145,
        7.621408939361572,
        0.08823908865451813,
        1.0
      ],
      "name": "benchShabby"
    },
    {
      "mesh": 32,
      "name": "benchShabby_Base_0"
    },
    {
      "children": [
        58
      ],
      "matrix": [
        1.0,
        0.0,
        0.0,
        0.0,
        0.0,
        1.0,
        0.0,
        0.0,
        0.0,
        0.0,
        1.0,
        0.0,
        -3.380340814590454,
        0.34717780351638794,
        1.1100105047225952,
        1.0
      ],
      "name": "candleBig"
    },
    {
      "mesh": 33,
      "name": "candleBig_Base_0"
    },
    {
      "children": [
        60
      ],
      "matrix": [
        1.0,
        0.0,
        0.0,
        0.0,
        0.0,
        1.0,
        0.0,
        0.0,
        0.0,
        0.0,
        1.0,
        0.0,
        -3.380340814590454,
        0.5359945893287659,
        1.104428768157959,
        1.0
      ],
      "name": "candleSmall"
    },
    {
      "mesh": 34,
      "name": "candleSmall_Base_0"
    },
    {
      "children": [
        62
      ],
      "matrix": [
        1.0,
        0.0,
        0.0,
        0.0,
        0.0,
        1.0,
        0.0,
        0.0,
        0.0,
        0.0,
        1.0,
        0.0,
        -4.189502716064453,
        0.4675692319869995,
        1.0989350080490112,
        1.0
      ],
      "name": "plate1"
    },
    {
      "mesh": 35,
      "name": "plate1_Base_0"
    },
    {
      "children": [
        64
      ],
      "matrix": [
        1.0,
        0.0,
        0.0,
        0.0,
        0.0,
        1.0,
        0.0,
        0.0,
        0.0,
        0.0,
        1.0,
        0.0,
        -4.189502716064453,
        1.0260343551635742,
        1.1005723476409912,
        1.0
      ],
      "name": "plate3"
    },
    {
      "mesh": 36,
      "name": "plate3_Base_0"
    },
    {
      "children": [
        66
      ],
      "matrix": [
        1.0,
        0.0,
        0.0,
        0.0,
        0.0,
        1.0,
        0.0,
        0.0,
        0.0,
        0.0,
        1.0,
        0.0,
        -4.189502716064453,
        -0.013526558876037598,
        1.1005723476409912,
        1.0
      ],
      "name": "plate2"
    },
    {
      "mesh": 37,
      "name": "plate2_Base_0"
    },
    {
      "children": [
        68
      ],
      "matrix": [
        1.0,
        0.0,
        0.0,
        0.0,
        0.0,
        1.0,
        0.0,
        0.0,
        0.0,
        0.0,
        1.0,
        0.0,
        -6.547628879547119,
        0.344054639339447,
        1.1092725992202759,
        1.0
      ],
      "name": "candleBigShabby"
    },
    {
      "mesh": 38,
      "name": "candleBigShabby_Base_0"
    },
    {
      "children": [
        70
      ],
      "matrix": [
        1.0,
        0.0,
        0.0,
        0.0,
        0.0,
        1.0,
        0.0,
        0.0,
        0.0,
        0.0,
        1.0,
        0.0,
        -6.551184177398682,
        0.5365875959396362,
        1.105042815208435,
        1.0
      ],
      "name": "candleSmallShabby"
    },
    {
      "mesh": 39,
      "name": "candleSmallShabby_Base_0"
    },
    {
      "children": [
        72
      ],
      "matrix": [
        1.0,
        0.0,
        0.0,
        0.0,
        0.0,
        1.0,
        0.0,
        0.0,
        0.0,
        0.0,
        1.0,
        0.0,
        -7.371698379516602,
        0.4776518940925598,
        1.1005820035934448,
        1.0
      ],
      "name": "plate1Shabby"
    },
    {
      "mesh": 40,
      "name": "plate1Shabby_Base_0"
    },
    {
      "children": [
        74
      ],
      "matrix": [
        1.0,
        0.0,
        0.0,
        0.0,
        0.0,
        1.0,
        0.0,
        0.0,
        0.0,
        0.0,
        1.0,
        0.0,
        -7.360202789306641,
        0.9273048639297485,
        1.107574701309204,
        1.0
      ],
      "name": "plate3Shabby"
    },
    {
      "mesh": 41,
      "name": "plate3Shabby_Base_0"
    },
    {
      "children": [
        76
      ],
      "matrix": [
        1.0,
        0.0,
        0.0,
        0.0,
        0.0,
        1.0,
        0.0,
        0.0,
        0.0,
        0.0,
        1.0,
        0.0,
        -7.368895053863525,
        -0.01475841086357832,
        1.1098599433898926,
        1.0
      ],
      "name": "plate2Shabby"
    },
    {
      "mesh": 42,
      "name": "plate2Shabby_Base_0"
    },
    {
      "children": [
        78
      ],
      "matrix": [
        1.0,
        0.0,
        0.0,
        0.0,
        0.0,
        1.0,
        0.0,
        0.0,
        0.0,
        0.0,
        1.0,
        0.0,
        -2.0136122703552246,
        2.598336696624756,
        1.3681317567825317,
        1.0
      ],
      "name": "chandelier"
    },
    {
      "mesh": 43,
      "name": "chandelier_Base_0"
    },
    {
      "children": [
        80
      ],
      "matrix": [
        1.0,
        0.0,
        0.0,
        0.0,
        0.0,
        1.0,
        0.0,
        0.0,
        0.0,
        0.0,
        1.0,
        0.0,
        -3.2448809146881104,
        0.9041397571563721,
        1.231645107269287,
        1.0
      ],
      "name": "bottle1"
    },
    {
      "mesh": 44,
      "name": "bottle1_Base_0"
    },
    {
      "children": [
        82
      ],
      "matrix": [
        1.0,
        0.0,
        0.0,
        0.0,
        0.0,
        1.0,
        0.0,
        0.0,
        0.0,
        0.0,
        1.0,
        0.0,
        -3.044433832168579,
        0.5245872735977173,
        1.3055064678192139,
        1.0
      ],
      "name": "bottle2"
    },
    {
      "mesh": 45,
      "name": "bottle2_Base_0"
    },
    {
      "children": [
        84
      ],
      "matrix": [
        1.0,
        0.0,
        0.0,
        0.0,
        0.0,
        1.0,
        0.0,
        0.0,
        0.0,
        0.0,
        1.0,
        0.0,
        -3.038313150405884,
        0.2508251667022705,
        1.2512860298156738,
        1.0
      ],
      "name": "bottle3"
    },
    {
      "mesh": 46,
      "name": "bottle3_Base_0"
    },
    {
      "children": [
        86
      ],
      "matrix": [
        1.0,
        0.0,
        0.0,
        0.0,
        0.0,
        1.0,
        0.0,
        0.0,
        0.0,
        0.0,
        1.0,
        0.0,
        -1.3040993213653564,
        4.506183624267578,
        1.1649346351623535,
        1.0
      ],
      "name": "shelf"
    },
    {
      "mesh": 47,
      "name": "shelf_Base_0"
    },
    {
      "children": [
        88
      ],
      "matrix": [
        1.0,
        0.0,
        0.0,
        0.0,
        0.0,
        1.0,
        0.0,
        0.0,
        0.0,
        0.0,
        1.0,
        0.0,
        -1.1031476259231567,
        5.993251323699951,
        0.9762232899665833,
        1.0
      ],
      "name": "cupboard"
    },
    {
      "mesh": 48,
      "name": "cupboard_Base_0"
    },
    {
      "children": [
        90
      ],
      "matrix": [
        1.0,
        0.0,
        0.0,
        0.0,
        0.0,
        1.0,
        0.0,
        0.0,
        0.0,
        0.0,
        1.0,
        0.0,
        -1.0276134014129639,
        7.826916217803955,
        0.9978957772254944,
        1.0
      ],
      "name": "cupboarShabby"
    },
    {
      "mesh": 49,
      "name": "cupboarShabby_Base_0"
    },
    {
      "children": [
        92
      ],
      "matrix": [
        1.0,
        0.0,
        0.0,
        0.0,
        0.0,
        1.0,
        0.0,
        0.0,
        0.0,
        0.0,
        1.0,
        0.0,
        -3.5597643852233887,
        12.69495677947998,
        0.5401025414466858,
        1.0
      ],
      "name": "barCounter"
    },
    {
      "mesh": 50,
      "name": "barCounter_Base_0"
    },
    {
      "children": [
        94
      ],
      "matrix": [
        1.0,
        0.0,
        0.0,
        0.0,
        0.0,
        1.0,
        0.0,
        0.0,
        0.0,
        0.0,
        1.0,
        0.0,
        -8.423422813415527,
        12.294666290283203,
        0.7126067280769348,
        1.0
      ],
      "name": "barCounterShavvy"
    },
    {
      "mesh": 51,
      "name": "barCounterShavvy_Base_0"
    }
  ],
  "samplers": [
    {
      "magFilter": 9729,
      "minFilter": 9987,
      "wrapS": 10497,
      "wrapT": 10497
    }
  ],
  "scene": 0,
  "scenes": [
    {
      "name": "Sketchfab_Scene",
      "nodes": [
        0
      ]
    }
  ],
  "textures": [
    {
      "sampler": 0,
      "source": 0
    }
  ]
}
